<svg data-v-0dd9719b="" version="1.0" xmlns="http://www.w3.org/2000/svg" xmlns:xlink="http://www.w3.org/1999/xlink" width="100%" height="100%" viewBox="0 0 340.000000 250.000000" preserveAspectRatio="xMidYMid meet" color-interpolation-filters="sRGB" style="margin: auto;"> <rect data-v-0dd9719b="" x="0" y="0" width="100%" height="100%" fill="#fff" fill-opacity="1" class="background"></rect> <rect data-v-0dd9719b="" x="0" y="0" width="100%" height="100%" fill="url(#watermark)" fill-opacity="1" class="watermarklayer"></rect> <g data-v-0dd9719b="" fill="#00a5a9" class="icon-text-wrapper icon-svg-group iconsvg" transform="translate(48.56999969482422,96.98356437683105)"><g class="iconsvg-imagesvg" transform="translate(0,0)"><g><rect fill="#00a5a9" fill-opacity="0" stroke-width="2" x="0" y="0" width="60" height="56.032872618602916" class="image-rect"></rect> <svg x="0" y="0" width="60" height="56.032872618602916" filtersec="colorsb989401521" class="image-svg-svg primary" style="overflow: visible;"><svg xmlns="http://www.w3.org/2000/svg" viewBox="13.677627563476562 89.5285873413086 1476.3446044921875 1378.7261962890625"><g fill-rule="evenodd" clip-rule="evenodd"><path fill="#F08D00" d="M358.406 181.943C550.705 70.924 774.3 63.149 965.028 141.368l-57.756 33.342c-167.65-56.601-357.884-43.599-523.129 51.804-305.012 176.1-409.561 566.267-233.459 871.279 176.096 305.007 566.264 409.55 871.276 233.453 185.105-106.868 296.369-292.59 315.869-490.267l53.858-31.089c-10.432 226.913-132.717 443.941-343.995 565.929-329.625 190.309-751.274 77.33-941.577-252.3-190.313-329.618-77.328-751.268 252.291-941.576zm699.421 5.909l-51.649 29.82a637.01 637.01 0 0 1 84.719 54.722l47.961-27.691a686.894 686.894 0 0 0-81.031-56.851zm147.339 118.633l-45.885 26.491c21.022 21.533 40.692 44.789 58.827 69.669l44.813-25.873a687.636 687.636 0 0 0-57.755-70.287zm103.789 143.775l-44.605 25.751a639.248 639.248 0 0 1 37.178 82.169l45.185-26.085a690.8 690.8 0 0 0-37.758-81.835zm64.195 166.634l-46.629 26.921a633.982 633.982 0 0 1 13.22 95.999l49.409-28.525a685.037 685.037 0 0 0-16-94.395z"></path><path fill="#00A5A9" d="M413.555 277.454c69.461-40.106 143.791-64.161 218.694-73.335-29.125 38.673-53.036 80.618-71.49 124.693L169.17 554.897c47.212-112.791 130.338-211.603 244.385-277.443zm630.931-181.966L540.023 386.74 230.588 565.392l-82.155 47.433c-16.611 55.521-24.915 113.473-24.395 171.828l391.585-226.088a581.895 581.895 0 0 1 2.5-59.114L1153.08 132.86a582.853 582.853 0 0 0-108.594-37.372zm198.664 89.001L517.768 603.288 318.795 718.167 126.178 829.375a574.869 574.869 0 0 0 30.16 140.325l391.59-226.085a575.151 575.151 0 0 1-14.774-49.142l781.316-451.095a576.018 576.018 0 0 0-71.32-58.889zm131.619 127.706L562.554 781.127l-155.556 89.811-236.034 136.274a581.113 581.113 0 0 0 30.659 61.169c11.552 20.015 24.156 39.053 37.64 57.135l391.596-226.085a589.923 589.923 0 0 1-28.212-41.383l818.67-472.66c-2.883-5.38-1.587-3.39-8.903-16.059-7.316-12.669-24.156-39.047-37.645-57.134zm82.93 155.819l-801.665 462.84-160.828 92.858-230.763 133.228a574.66 574.66 0 0 0 106.449 96.282l391.59-226.085a576.151 576.151 0 0 1-42.758-32.99l760.946-439.333a574.74 574.74 0 0 0-22.971-86.8zm32.3 185.047a580.476 580.476 0 0 1-8.638 105.055l-585.923 338.286a584.178 584.178 0 0 0 65.703 19.738l-391.59 226.085c-56.381-13.378-110.733-35.155-160.998-64.789l174.854-100.954 216.736-125.131 689.856-398.29zm-324.587 474.515c-45.396 60.283-103.396 112.623-172.863 152.732-114.035 65.835-241.178 88.43-362.46 72.923l391.591-226.085c47.397 6.062 95.681 6.323 143.732.43z"></path></g></svg></svg> <!----></g></g> <g transform="translate(67,3.5501842498779297)"><g data-gra="path-name" fill-rule="" class="tp-name iconsvg-namesvg" transform="translate(0,0)"><g transform="scale(1)"><g><path d="M7.96 4.14L7.52 2.84Q8.03 2.56 8.23 2.25 8.42 1.94 8.42 1.69L8.42 1.69 8.42-13.39 1.66-13.39 1.66-14.65 8.42-14.65 8.42-29.27 9.72-29.27 9.72-14.65 34.09-14.65 34.09-13.39 17.82-13.39Q20.02-7.99 23.69-4.72L23.69-4.72Q27.54-1.19 34.27 1.19L34.27 1.19 33.7 2.52Q30.24 1.22 27.52-0.34 24.8-1.91 22.75-3.82L22.75-3.82Q18.79-7.45 16.45-13.39L16.45-13.39 9.72-13.39 9.72 1.87Q10.76 1.48 12.08 0.92 13.39 0.36 14.72-0.27 16.06-0.9 17.33-1.51 18.61-2.12 19.58-2.63L19.58-2.63 19.76-1.22Q13.9 1.51 7.96 4.14L7.96 4.14ZM12.78-17.57L12.31-18.79Q14.26-19.55 16.43-20.57 18.61-21.6 21.1-22.93L21.1-22.93Q26.03-25.6 29.45-28.15L29.45-28.15 30.13-26.96Q26.6-24.37 21.64-21.74L21.64-21.74Q19.15-20.41 16.94-19.39 14.72-18.36 12.78-17.57L12.78-17.57ZM39.13-25.49L52.06-25.49Q52.24-26.35 52.4-27.38 52.56-28.4 52.7-29.45L52.7-29.45 53.96-29.38Q53.82-28.3 53.66-27.38 53.5-26.46 53.32-25.49L53.32-25.49 67.9-25.49 67.9-24.37 53.06-24.37Q52.63-22.28 51.98-20.52L51.98-20.52 66.38-20.52 66.38-19.51 51.66-19.51Q50.94-17.53 49.93-15.7L49.93-15.7 69.3-15.7 69.3-14.62 59.29-14.62Q60.16-13.21 61.22-12.01 62.28-10.8 63.61-9.72 64.94-8.64 66.55-7.63 68.15-6.62 70.16-5.65L70.16-5.65 69.52-4.46Q65.41-6.48 62.64-8.89L62.64-8.89 62.64 3.17 44.46 3.17 44.46-8.96Q43.09-7.7 41.42-6.46 39.74-5.22 37.73-3.92L37.73-3.92 36.97-5Q44.03-9.43 47.23-13.79L47.23-13.79 47.81-14.62 37.73-14.62 37.73-15.7 48.49-15.7Q49-16.56 49.45-17.51 49.9-18.47 50.29-19.51L50.29-19.51 40.64-19.51 40.64-20.52 50.65-20.52Q50.98-21.42 51.25-22.37 51.52-23.33 51.8-24.37L51.8-24.37 39.13-24.37 39.13-25.49ZM45.68-8.89L45.68-3.89 61.42-3.89 61.42-8.89 45.68-8.89ZM45.68 2.09L61.42 2.09 61.42-2.81 45.68-2.81 45.68 2.09ZM45.58-10.01L61.45-10.01Q59.47-11.99 57.89-14.62L57.89-14.62 49.28-14.62 48.42-13.28Q47.81-12.46 47.11-11.65 46.4-10.84 45.58-10.01L45.58-10.01ZM88.02-29.27L89.17-29.66Q89.46-29.16 89.77-28.53 90.07-27.9 90.43-27.11L90.43-27.11Q90.68-26.5 90.99-25.72 91.3-24.95 91.48-24.37L91.48-24.37 105.77-24.37 105.77-23.15 90.58-23.15 90.58-16.78 102.1-16.78 102.1-4.79Q102.1-3.56 101.9-2.77 101.7-1.98 101.25-1.48 100.8-0.97 100.1-0.74 99.4-0.5 98.39-0.43L98.39-0.43Q97.34-0.36 96.43-0.34 95.51-0.32 94.72-0.36L94.72-0.36 94.5-1.87Q96.19-1.69 98.17-1.76L98.17-1.76Q98.93-1.8 99.43-1.93 99.94-2.05 100.26-2.39 100.58-2.74 100.71-3.37 100.84-4 100.84-5.04L100.84-5.04 100.84-15.55 90.58-15.55 90.58 4.28 89.32 4.28 89.32-15.55 79.06-15.55 79.06 0.14 77.8 0.14 77.8-16.78 89.32-16.78 89.32-23.15 74.09-23.15 74.09-24.37 90.07-24.37Q89.89-24.95 89.64-25.6 89.39-26.24 89.17-26.75L89.17-26.75Q88.85-27.5 88.54-28.17 88.24-28.84 88.02-29.27L88.02-29.27ZM115.85-21.06L136.22-21.06 136.22-14.98 115.85-14.98 115.85-21.06ZM119.34-6.73L132.7-6.73 132.7-0.14 119.34-0.14 119.34-6.73ZM112.72-11.52L139.36-11.52 139.36 0.14Q139.36 1.76 138.74 2.47 138.13 3.17 136.48 3.31L136.48 3.31Q135.36 3.42 134.48 3.44 133.6 3.46 132.44 3.42L132.44 3.42 132.23 2.02Q133.2 2.09 133.99 2.12 134.78 2.16 135.68 2.12L135.68 2.12Q136.48 2.09 136.96 2.02 137.45 1.94 137.7 1.71 137.95 1.48 138.02 1.03 138.1 0.58 138.1-0.18L138.1-0.18 138.1-10.33 113.94-10.33 113.94 3.82 112.72 3.82 112.72-11.52ZM117.07-19.94L117.07-16.09 134.96-16.09 134.96-19.94 117.07-19.94ZM120.56-5.65L120.56-1.26 131.47-1.26 131.47-5.65 120.56-5.65ZM123.84-29.27L125.1-29.7Q125.35-29.3 125.66-28.71 125.96-28.12 126.36-27.36L126.36-27.36Q126.65-26.78 126.88-26.32 127.12-25.85 127.3-25.45L127.3-25.45 142.06-25.45 142.06-24.26 110.02-24.26 110.02-25.45 125.86-25.45Q125.57-26.1 125.1-26.96L125.1-26.96Q124.31-28.48 123.84-29.27L123.84-29.27ZM147.56-25.09L147.31-26.35Q152.42-26.35 160.96-27L160.96-27Q165.24-27.36 168.61-27.72 171.97-28.08 174.46-28.48L174.46-28.48 174.85-27.22Q172.26-26.82 168.84-26.46 165.42-26.1 161.1-25.78L161.1-25.78Q161.03-25.78 160.92-25.76 160.81-25.74 160.74-25.74L160.74-25.74Q160.24-23.76 159.55-21.82L159.55-21.82 174.56-21.82 174.56-20.66 159.08-20.66Q158.36-18.72 157.36-16.85L157.36-16.85 177.52-16.85 177.52-15.73 156.74-15.73Q155.74-13.93 154.44-12.2L154.44-12.2 172.58-12.2 172.58 3.31 152.68 3.31 152.68-9.97Q149.87-6.73 145.84-3.56L145.84-3.56 144.94-4.57Q148.39-7.2 150.91-9.94 153.43-12.67 155.27-15.73L155.27-15.73 145.44-15.73 145.44-16.85 155.92-16.85Q156.42-17.78 156.87-18.72 157.32-19.66 157.72-20.66L157.72-20.66 148.32-20.66 148.32-21.82 158.18-21.82Q158.54-22.75 158.81-23.71 159.08-24.66 159.37-25.63L159.37-25.63Q152.03-25.09 147.56-25.09L147.56-25.09ZM153.9-11.09L153.9-7.24 171.36-7.24 171.36-11.09 153.9-11.09ZM153.9 2.12L171.36 2.12 171.36-1.69 153.9-1.69 153.9 2.12ZM153.9-6.12L153.9-2.81 171.36-2.81 171.36-6.12 153.9-6.12Z" transform="translate(-1.6600000858306885, 29.700000762939453)"></path></g> <!----> <!----> <!----> <!----> <!----> <!----> <!----></g></g> <g data-gra="path-slogan" fill-rule="" class="tp-slogan iconsvg-slogansvg" fill="#00a5a9" transform="translate(22.540000915527344,39.97999954223633)"><!----> <!----> <g transform="scale(1, 1)"><g transform="scale(1)"><path d="M8.06-6.05L8.06-6.05L6.94-6.05Q6.52-7.78 4.55-7.83L4.55-7.83Q1.83-7.69 1.73-4.36L1.73-4.36Q1.73-0.80 4.59-0.80L4.59-0.80Q6.56-0.84 7.03-3.19L7.03-3.19L8.16-3.19Q7.64 0.05 4.36 0.14L4.36 0.14Q0.61 0 0.52-4.31L0.52-4.31Q0.70-8.63 4.55-8.81L4.55-8.81Q7.59-8.72 8.06-6.05ZM10.69-5.06L15.19-5.06L15.19-8.58L16.36-8.58L16.36 0L15.19 0L15.19-3.98L10.69-3.98L10.69 0L9.52 0L9.52-8.58L10.69-8.58L10.69-5.06ZM23.81 0L22.97-2.48L19.50-2.48L18.61 0L17.44 0L20.67-8.58L21.98-8.58L25.08 0L23.81 0ZM21.23-7.31L19.88-3.52L22.55-3.52L21.28-7.31L21.23-7.31ZM27.52-8.58L31.83-1.64L31.83-8.58L32.95-8.58L32.95 0L31.64 0L27.28-6.94L27.23-6.94L27.23 0L26.11 0L26.11-8.58L27.52-8.58ZM41.16-3.61L38.53-3.61L38.53-4.59L42.28-4.59L42.28 0L41.53 0L41.25-1.08Q40.27 0.09 38.44 0.14L38.44 0.14Q36.70 0.14 35.77-0.75L35.77-0.75Q34.36-2.06 34.41-4.36L34.41-4.36Q34.73-8.63 38.48-8.81L38.48-8.81Q41.67-8.63 42.14-6L42.14-6L41.02-6Q40.55-7.78 38.44-7.83L38.44-7.83Q35.77-7.64 35.63-4.31L35.63-4.31Q35.63-0.75 38.48-0.75L38.48-0.75Q39.52-0.75 40.27-1.31L40.27-1.31Q41.20-2.06 41.16-3.61L41.16-3.61ZM51.23-6.05L51.23-6.05L50.11-6.05Q49.69-7.78 47.72-7.83L47.72-7.83Q45-7.69 44.91-4.36L44.91-4.36Q44.91-0.80 47.77-0.80L47.77-0.80Q49.73-0.84 50.20-3.19L50.20-3.19L51.33-3.19Q50.81 0.05 47.53 0.14L47.53 0.14Q43.78 0 43.69-4.31L43.69-4.31Q43.88-8.63 47.72-8.81L47.72-8.81Q50.77-8.72 51.23-6.05ZM53.86-5.06L58.36-5.06L58.36-8.58L59.53-8.58L59.53 0L58.36 0L58.36-3.98L53.86-3.98L53.86 0L52.69 0L52.69-8.58L53.86-8.58L53.86-5.06ZM66.98-3.19L66.98-8.58L68.16-8.58L68.16-3.05Q68.02 0.05 64.64 0.14L64.64 0.14Q61.50 0.05 61.36-2.86L61.36-2.86L61.36-8.58L62.53-8.58L62.53-3.19Q62.58-0.84 64.69-0.80L64.69-0.80Q66.98-0.84 66.98-3.19L66.98-3.19ZM71.34-8.58L75.66-1.64L75.66-8.58L76.78-8.58L76.78 0L75.47 0L71.11-6.94L71.06-6.94L71.06 0L69.94 0L69.94-8.58L71.34-8.58ZM88.31-3.61L85.69-3.61L85.69-4.59L89.44-4.59L89.44 0L88.69 0L88.41-1.08Q87.42 0.09 85.59 0.14L85.59 0.14Q83.86 0.14 82.92-0.75L82.92-0.75Q81.52-2.06 81.56-4.36L81.56-4.36Q81.89-8.63 85.64-8.81L85.64-8.81Q88.83-8.63 89.30-6L89.30-6L88.17-6Q87.70-7.78 85.59-7.83L85.59-7.83Q82.92-7.64 82.78-4.31L82.78-4.31Q82.78-0.75 85.64-0.75L85.64-0.75Q86.67-0.75 87.42-1.31L87.42-1.31Q88.36-2.06 88.31-3.61L88.31-3.61ZM96.89 0L96.05-2.48L92.58-2.48L91.69 0L90.52 0L93.75-8.58L95.06-8.58L98.16 0L96.89 0ZM94.31-7.31L92.95-3.52L95.63-3.52L94.36-7.31L94.31-7.31ZM105.98-4.27L105.98-4.27Q105.80-7.64 102.98-7.83L102.98-7.83Q100.13-7.69 99.98-4.27L99.98-4.27Q100.13-0.94 102.98-0.80L102.98-0.80Q105.80-0.98 105.98-4.27ZM107.16-4.27L107.16-4.27Q106.88 0 102.98 0.14L102.98 0.14Q99.05 0 98.77-4.27L98.77-4.27Q99-8.72 102.98-8.81L102.98-8.81Q106.88-8.67 107.16-4.27ZM111.05-4.31L109.69-3.05L109.69 0L108.52 0L108.52-8.58L109.69-8.58L109.69-4.41L113.86-8.58L115.50-8.58L111.89-5.11L115.59 0L114.05 0L111.05-4.31ZM122.16 0L121.31-2.48L117.84-2.48L116.95 0L115.78 0L119.02-8.58L120.33-8.58L123.42 0L122.16 0ZM119.58-7.31L118.22-3.52L120.89-3.52L119.63-7.31L119.58-7.31ZM125.86-8.58L130.17-1.64L130.17-8.58L131.30-8.58L131.30 0L129.98 0L125.63-6.94L125.58-6.94L125.58 0L124.45 0L124.45-8.58L125.86-8.58Z" transform="translate(-0.515625, 8.8125)"></path></g></g></g></g></g><defs v-gra="od"></defs></svg>